<svg xmlns="http://www.w3.org/2000/svg" fill="none" viewBox="0 0 40 40"><path fill="currentColor" d="M30.067 7.564A15.933 15.933 0 0 0 20 4a15.93 15.93 0 0 0-9.806 3.356l6.044 6.043 2.828-2.828-2.973-2.974A12.994 12.994 0 0 1 20 7c1.492 0 2.926.251 4.26.714L7.714 24.26A12.913 12.913 0 0 1 7.153 22h-3.03c.202 1.612.643 3.15 1.287 4.577a16 16 0 0 0 2.154 3.49L30.067 7.564Z"/><path fill="currentColor" d="M7.804 9.643a15.938 15.938 0 0 0-3.583 7.69h3.053a12.9 12.9 0 0 1 .582-1.982l3.215 3.215 2.829-2.828-6.096-6.095ZM4 20c0 .223.005.446.014.667H9l1-1-1-1H4.055C4.019 19.107 4 19.55 4 20ZM9.933 32.436A15.933 15.933 0 0 0 20 36a15.93 15.93 0 0 0 9.806-3.356l-6.044-6.043-2.828 2.828 2.973 2.974A12.993 12.993 0 0 1 20 33a12.98 12.98 0 0 1-4.26-.714L32.286 15.74c.252.726.44 1.482.561 2.26h3.03a15.89 15.89 0 0 0-1.287-4.577 16.004 16.004 0 0 0-2.154-3.49L9.933 32.436Z"/><path fill="currentColor" d="M32.196 30.357a15.938 15.938 0 0 0 3.583-7.69h-3.053a12.897 12.897 0 0 1-.582 1.982l-3.215-3.215-2.828 2.828 6.095 6.095ZM36 20c0-.223-.005-.446-.014-.667H31l-1 1 1 1h4.945A16.2 16.2 0 0 0 36 20Z"/></svg>