<svg xmlns="http://www.w3.org/2000/svg" fill="none" viewBox="0 0 40 40"><path fill="currentColor" d="M30.067 7.564A15.933 15.933 0 0 0 20 4a15.93 15.93 0 0 0-9.806 3.356l6.185 6.185 2.829-2.829-3.115-3.115A12.994 12.994 0 0 1 20 7c1.492 0 2.926.251 4.26.714L7.714 24.26a12.902 12.902 0 0 1-.474-1.76H4.194a15.883 15.883 0 0 0 1.311 4.284 16.008 16.008 0 0 0 2.059 3.283L30.067 7.564Z"/><path fill="currentColor" d="M7.804 9.643a15.936 15.936 0 0 0-3.61 7.857H7.24c.144-.74.352-1.459.616-2.149l3.357 3.357 2.828-2.829-6.237-6.236ZM4 20.5c0 .167.003.334.008.5h4.967L10 20l-1.026-1H4.069c-.046.494-.069.994-.069 1.5ZM9.933 32.436A15.933 15.933 0 0 0 20 36a15.93 15.93 0 0 0 9.806-3.356l-6.185-6.185-2.829 2.829 3.115 3.115A12.993 12.993 0 0 1 20 33a12.98 12.98 0 0 1-4.26-.714L32.286 15.74c.197.57.356 1.157.474 1.76h3.046a15.882 15.882 0 0 0-1.311-4.284 16.008 16.008 0 0 0-2.059-3.283L9.933 32.436Z"/><path fill="currentColor" d="M32.196 30.357a15.935 15.935 0 0 0 3.61-7.857H32.76c-.144.74-.352 1.459-.616 2.149l-3.356-3.357-2.829 2.829 6.237 6.236ZM36 19.5c0-.167-.003-.334-.008-.5h-4.967L30 20l1.026 1h4.906c.046-.494.069-.994.069-1.5Z"/></svg>