<svg xmlns="http://www.w3.org/2000/svg" fill="none" viewBox="0 0 40 40"><path fill="currentColor" fill-rule="evenodd" d="M36 13.2v20.853s-5.941-.337-10.146-.78a31.987 31.987 0 0 1-4.683-.78c1.474.102 9.649-.1 12.487-.781l1.453-.378V13.2H36Zm-1.778-3.627v20.854h-1.778s-1.124-.781-.889-1.814h1.778V9.57h.889v.003ZM4 14.107v19.947s12.605-.67 14.83-1.562L4.888 31.334V14.107H4Zm1.778-3.624v19.944l13.051 1.285s-8.541-3.134-11.273-3.099h-.89v-18.13h-.888Zm15.111 0a42.917 42.917 0 0 1 11.555-4.536v23.57l-5.333-4.533s1.778-4.293.889-6.347c0 .003-.068-4.357-7.111-8.154Zm4.444 14.507 6.222 5.44-.889 1.813-6.222-6.347A8.675 8.675 0 0 1 20 27.706s-7.821-.443-8-8.16c0 0 .837-7.038 8-7.252 2.854-.086 6.462 2.042 7.111 7.253a7.735 7.735 0 0 1-1.778 5.44v.003Zm-5.768-10.862a5.88 5.88 0 1 1-5.775 5.877 5.828 5.828 0 0 1 5.776-5.88v.003Zm6.289 16.023a1.327 1.327 0 0 1 1.56.78l-6.243.781a27.925 27.925 0 0 1 4.683-1.561Zm-4.965-1.538v2.72a10.393 10.393 0 0 1 4.965-1.962l-1.561-1.561a11.726 11.726 0 0 1-3.404.803ZM7.556 6.853v20.853s6.942.974 11.556 3.628v-2.72s-7.192-1.535-8-8.16c0 0-1.293-6.602 8-9.974-.001.003-6.323-4.004-11.556-3.627Z" clip-rule="evenodd"/></svg>