<svg xmlns="http://www.w3.org/2000/svg" fill="none" viewBox="0 0 40 40"><path fill="currentColor" fill-rule="evenodd" d="M20 22.696a1.797 1.797 0 1 1 0 3.594 1.797 1.797 0 0 1 0-3.594Zm-.899-1.797s-1.275-4.729 0-7.19a1.082 1.082 0 0 1 1.798 0s1.397 2.798 0 7.19a1.043 1.043 0 0 1-1.798 0ZM20 30.783a10.783 10.783 0 1 1 0-21.566 10.783 10.783 0 0 1 0 21.566Zm0-18.87A8.088 8.088 0 1 0 28.195 20 8.142 8.142 0 0 0 20 11.912Zm8.088-2.697s13.33 9.998-.899 22.466l8.088 3.595-4.493-4.494s11.737-10.389 0-21.567l4.493-4.493-8.088 3.595.899.898Zm-16.176 0s-13.33 9.998.899 22.466l-8.088 3.595 4.493-4.494s-11.737-10.389 0-21.567L4.723 4.723l8.088 3.595-.899.898Z" clip-rule="evenodd"/></svg>