<svg width="72" height="72" viewBox="0 0 72 72" fill="none" xmlns="http://www.w3.org/2000/svg">
<circle cx="36" cy="36" r="36" fill="black"/>
<path d="M56.1349 11.1271C50.636 6.67014 43.6298 3.99988 36 3.99988C28.7809 3.99988 22.1202 6.39037 16.7662 10.4229C16.6396 10.5183 16.5137 10.6147 16.3885 10.7119L28.7584 23.0818L34.4152 17.4249L28.1851 11.1948C30.6517 10.4185 33.277 9.99988 36 9.99988C38.9844 9.99988 41.8513 10.5027 44.5207 11.4282L11.4284 44.5206C11.0332 43.381 10.7151 42.2054 10.4803 41H4.38835C4.83635 43.8551 5.66186 46.5849 6.8122 49.1367C6.87735 49.2813 6.94354 49.4252 7.01077 49.5686C8.1174 51.9288 9.50379 54.1318 11.1272 56.1348L56.1349 11.1271Z" fill="white"/>
<path d="M11.6087 15.285C7.88485 19.6655 5.32004 25.0618 4.38831 31H10.4803C10.7689 29.5185 11.1833 28.082 11.7119 26.702L18.425 33.4151L24.0819 27.7583L11.6087 15.285Z" fill="white"/>
<path d="M4 36.9999C4 37.3345 4.00514 37.6679 4.01533 38H13.9494L16.0021 36L13.9494 34H4.13876C4.04694 34.9876 4 35.9883 4 36.9999Z" fill="white"/>
<path d="M15.8651 60.8728C21.364 65.3297 28.3702 68 36 68C43.2191 68 49.8798 65.6095 55.2338 61.5769C55.3604 61.4815 55.4863 61.3852 55.6115 61.2879L43.2416 48.9181L37.5848 54.5749L43.8149 60.805C41.3483 61.5814 38.723 62 36 62C33.0156 62 30.1487 61.4972 27.4793 60.5716L60.5716 27.4793C60.9668 28.6189 61.2849 29.7945 61.5197 30.9999H67.6116C67.1637 28.1448 66.3381 25.415 65.1878 22.8631C65.1227 22.7186 65.0565 22.5746 64.9892 22.4313C63.8826 20.071 62.4962 17.8681 60.8728 15.8651L15.8651 60.8728Z" fill="white"/>
<path d="M60.3913 56.7148C64.1152 52.3344 66.68 46.9381 67.6117 40.9999H61.5197C61.2311 42.4814 60.8167 43.9179 60.2881 45.2979L53.575 38.5848L47.9181 44.2416L60.3913 56.7148Z" fill="white"/>
<path d="M68 35C68 34.6654 67.9949 34.332 67.9847 33.9999H58.0506L55.9979 35.9999L58.0506 37.9999H67.8612C67.9531 37.0123 68 36.0116 68 35Z" fill="white"/>
</svg>
