<svg width="161" height="88" viewBox="0 0 161 88" fill="none" xmlns="http://www.w3.org/2000/svg">
<g clip-path="url(#clip0_2207_125)">
<path d="M62.345 47.035L95.535 13.845C87.285 6.69001 73.72 6.69001 65.465 13.845L75.195 23.575L79.435 19.335L74.72 14.62C78.32 13.375 82.675 13.375 86.275 14.62L63.12 37.775C62.825 36.895 62.59 35.995 62.435 35.065H57.125C57.72 39.585 59.545 43.65 62.345 47.04V47.035ZM94.22 51.165C94.67 50.84 95.11 50.51 95.535 50.155L91.795 46.415L85.805 40.425L81.565 44.665L86.28 49.38C82.68 50.625 78.325 50.625 74.725 49.38L97.88 26.225C98.175 27.105 98.41 28.005 98.565 28.935H103.875C103.28 24.415 101.455 20.35 98.655 16.96L94.915 20.7L69.21 46.405L65.47 50.145C73.265 56.895 85.975 57.35 94.225 51.155L94.22 51.165Z" fill="var(--color-text-regular)"/>
<path d="M99.6049 45.81C101.85 42.71 103.36 39.04 103.875 35.06H98.5649C98.4049 35.99 98.1699 36.895 97.8799 37.77L93.1699 33.06L88.9299 37.3L98.6599 47.03C98.9899 46.635 99.3049 46.22 99.6099 45.805L99.6049 45.81ZM61.3949 18.19C59.0958 21.3602 57.6277 25.0562 57.1249 28.94H62.4349C62.5949 28.01 62.8299 27.105 63.1199 26.23L67.8299 30.94L72.0699 26.7L66.0799 20.71L62.3399 16.97C62.0099 17.365 61.6949 17.78 61.3899 18.195L61.3949 18.19ZM94.2299 32L95.2899 33.06H104.3C104.315 32.71 104.325 32.355 104.325 32C104.325 31.645 104.315 31.29 104.3 30.94H95.2899L94.2299 32ZM56.7049 30.94C56.6899 31.29 56.6799 31.645 56.6799 32C56.6799 32.355 56.6899 32.71 56.7049 33.06H65.7149L66.7749 32L65.7149 30.94H56.7049Z" fill="var(--color-text-regular)"/>
</g>
<path d="M9.96953 80V64.16H17.2895C19.2255 64.16 20.6495 64.536 21.5615 65.288C22.4735 66.024 22.9295 67.08 22.9295 68.456C22.9295 69.32 22.6735 70.08 22.1615 70.736C21.6495 71.392 20.8735 71.808 19.8335 71.984V72.008C20.9855 72.168 21.8575 72.584 22.4495 73.256C23.0415 73.928 23.3375 74.736 23.3375 75.68C23.3375 77.056 22.8495 78.12 21.8735 78.872C20.9135 79.624 19.4815 80 17.5775 80H9.96953ZM13.5695 77.288H17.0735C17.9055 77.288 18.5215 77.12 18.9215 76.784C19.3215 76.448 19.5215 75.976 19.5215 75.368C19.5215 74.76 19.3215 74.296 18.9215 73.976C18.5215 73.64 17.9055 73.472 17.0735 73.472H13.5695V77.288ZM13.5695 70.712H16.6895C18.3055 70.712 19.1135 70.088 19.1135 68.84C19.1135 67.592 18.3055 66.968 16.6895 66.968H13.5695V70.712ZM31.7072 72.368C31.7072 71.744 31.5312 71.256 31.1792 70.904C30.8432 70.552 30.3792 70.376 29.7872 70.376C29.2272 70.376 28.7392 70.52 28.3232 70.808C27.9072 71.08 27.6192 71.56 27.4592 72.248L24.3152 71.408C24.5552 70.304 25.1472 69.424 26.0912 68.768C27.0352 68.096 28.3312 67.76 29.9792 67.76C31.0992 67.76 32.0592 67.928 32.8592 68.264C33.6592 68.6 34.2752 69.104 34.7072 69.776C35.1552 70.448 35.3792 71.28 35.3792 72.272V76.88C35.3792 77.504 35.6592 77.816 36.2192 77.816C36.5072 77.816 36.7552 77.784 36.9632 77.72L36.7472 79.904C36.2992 80.112 35.7472 80.216 35.0912 80.216C34.4992 80.216 33.9712 80.12 33.5072 79.928C33.0432 79.72 32.6752 79.424 32.4032 79.04C32.1472 78.64 32.0192 78.136 32.0192 77.528V77.408L32.5232 77.264C32.4752 77.92 32.2432 78.472 31.8272 78.92C31.4112 79.352 30.8832 79.68 30.2432 79.904C29.6192 80.128 28.9712 80.24 28.2992 80.24C27.4672 80.24 26.7552 80.12 26.1632 79.88C25.5712 79.624 25.1072 79.256 24.7712 78.776C24.4512 78.28 24.2912 77.672 24.2912 76.952C24.2912 76.072 24.5632 75.352 25.1072 74.792C25.6672 74.216 26.4912 73.824 27.5792 73.616L32.0912 72.68V74.792L29.4752 75.32C28.9792 75.432 28.5952 75.576 28.3232 75.752C28.0672 75.928 27.9392 76.216 27.9392 76.616C27.9392 76.984 28.0752 77.264 28.3472 77.456C28.6352 77.648 28.9712 77.744 29.3552 77.744C29.6592 77.744 29.9552 77.704 30.2432 77.624C30.5312 77.544 30.7792 77.424 30.9872 77.264C31.2112 77.088 31.3872 76.864 31.5152 76.592C31.6432 76.304 31.7072 75.96 31.7072 75.56V72.368ZM37.8547 85.04V68H41.1667L41.3827 72.08L40.9267 71.6C41.0547 70.848 41.3107 70.184 41.6947 69.608C42.0787 69.032 42.5747 68.584 43.1827 68.264C43.7907 67.928 44.4787 67.76 45.2467 67.76C46.2387 67.76 47.1107 68.008 47.8627 68.504C48.6147 69 49.1987 69.712 49.6147 70.64C50.0467 71.552 50.2627 72.664 50.2627 73.976C50.2627 75.288 50.0467 76.416 49.6147 77.36C49.1827 78.288 48.5827 79 47.8147 79.496C47.0627 79.992 46.1907 80.24 45.1987 80.24C44.1267 80.24 43.2467 79.928 42.5587 79.304C41.8707 78.68 41.4067 77.896 41.1667 76.952L41.5267 76.424V85.04H37.8547ZM44.0227 77.48C44.8227 77.48 45.4467 77.192 45.8947 76.616C46.3427 76.04 46.5667 75.168 46.5667 74C46.5667 72.832 46.3427 71.96 45.8947 71.384C45.4627 70.808 44.8547 70.52 44.0707 70.52C43.5587 70.52 43.1107 70.656 42.7267 70.928C42.3427 71.2 42.0467 71.592 41.8387 72.104C41.6307 72.616 41.5267 73.248 41.5267 74C41.5267 74.72 41.6227 75.344 41.8147 75.872C42.0227 76.384 42.3107 76.784 42.6787 77.072C43.0627 77.344 43.5107 77.48 44.0227 77.48ZM51.9416 80V62.84H55.6136V70.112C55.9816 69.328 56.4936 68.744 57.1496 68.36C57.8216 67.96 58.5896 67.76 59.4536 67.76C60.2856 67.76 61.0136 67.92 61.6376 68.24C62.2776 68.56 62.7736 69.04 63.1256 69.68C63.4936 70.32 63.6776 71.112 63.6776 72.056V80H59.9816V73.112C59.9816 72.168 59.8056 71.52 59.4536 71.168C59.1016 70.8 58.6456 70.616 58.0856 70.616C57.6536 70.616 57.2456 70.72 56.8616 70.928C56.4936 71.12 56.1896 71.448 55.9496 71.912C55.7256 72.36 55.6136 72.944 55.6136 73.664V80H51.9416ZM72.585 72.368C72.585 71.744 72.409 71.256 72.057 70.904C71.721 70.552 71.257 70.376 70.665 70.376C70.105 70.376 69.617 70.52 69.201 70.808C68.785 71.08 68.497 71.56 68.337 72.248L65.193 71.408C65.433 70.304 66.025 69.424 66.969 68.768C67.913 68.096 69.209 67.76 70.857 67.76C71.977 67.76 72.937 67.928 73.737 68.264C74.537 68.6 75.153 69.104 75.585 69.776C76.033 70.448 76.257 71.28 76.257 72.272V76.88C76.257 77.504 76.537 77.816 77.097 77.816C77.385 77.816 77.633 77.784 77.841 77.72L77.625 79.904C77.177 80.112 76.625 80.216 75.969 80.216C75.377 80.216 74.849 80.12 74.385 79.928C73.921 79.72 73.553 79.424 73.281 79.04C73.025 78.64 72.897 78.136 72.897 77.528V77.408L73.401 77.264C73.353 77.92 73.121 78.472 72.705 78.92C72.289 79.352 71.761 79.68 71.121 79.904C70.497 80.128 69.849 80.24 69.177 80.24C68.345 80.24 67.633 80.12 67.041 79.88C66.449 79.624 65.985 79.256 65.649 78.776C65.329 78.28 65.169 77.672 65.169 76.952C65.169 76.072 65.441 75.352 65.985 74.792C66.545 74.216 67.369 73.824 68.457 73.616L72.969 72.68V74.792L70.353 75.32C69.857 75.432 69.473 75.576 69.201 75.752C68.945 75.928 68.817 76.216 68.817 76.616C68.817 76.984 68.953 77.264 69.225 77.456C69.513 77.648 69.849 77.744 70.233 77.744C70.537 77.744 70.833 77.704 71.121 77.624C71.409 77.544 71.657 77.424 71.865 77.264C72.089 77.088 72.265 76.864 72.393 76.592C72.521 76.304 72.585 75.96 72.585 75.56V72.368ZM78.7325 80V68H81.9485L82.1405 70.472C82.4445 69.608 82.9005 68.944 83.5085 68.48C84.1165 68 84.8925 67.76 85.8365 67.76C86.1245 67.76 86.3725 67.784 86.5805 67.832C86.8045 67.88 86.9805 67.944 87.1085 68.024L86.7245 71.096C86.5645 71.032 86.3645 70.984 86.1245 70.952C85.8845 70.904 85.5885 70.88 85.2365 70.88C84.7405 70.88 84.2765 70.992 83.8445 71.216C83.4285 71.44 83.0845 71.768 82.8125 72.2C82.5405 72.632 82.4045 73.192 82.4045 73.88V80H78.7325ZM89.8153 66.44C89.0633 66.44 88.5033 66.288 88.1353 65.984C87.7833 65.68 87.6073 65.216 87.6073 64.592C87.6073 63.952 87.7833 63.48 88.1353 63.176C88.5033 62.872 89.0633 62.72 89.8153 62.72C90.5673 62.72 91.1193 62.872 91.4713 63.176C91.8393 63.48 92.0233 63.952 92.0233 64.592C92.0233 65.216 91.8393 65.68 91.4713 65.984C91.1193 66.288 90.5673 66.44 89.8153 66.44ZM91.6633 68V80H87.9913V68H91.6633ZM100.666 72.368C100.666 71.744 100.49 71.256 100.138 70.904C99.8019 70.552 99.3379 70.376 98.7459 70.376C98.1859 70.376 97.6979 70.52 97.2819 70.808C96.8659 71.08 96.5779 71.56 96.4179 72.248L93.2739 71.408C93.5139 70.304 94.1059 69.424 95.0499 68.768C95.9939 68.096 97.2899 67.76 98.9379 67.76C100.058 67.76 101.018 67.928 101.818 68.264C102.618 68.6 103.234 69.104 103.666 69.776C104.114 70.448 104.338 71.28 104.338 72.272V76.88C104.338 77.504 104.618 77.816 105.178 77.816C105.466 77.816 105.714 77.784 105.922 77.72L105.706 79.904C105.258 80.112 104.706 80.216 104.05 80.216C103.458 80.216 102.93 80.12 102.466 79.928C102.002 79.72 101.634 79.424 101.362 79.04C101.106 78.64 100.978 78.136 100.978 77.528V77.408L101.482 77.264C101.434 77.92 101.202 78.472 100.786 78.92C100.37 79.352 99.8419 79.68 99.2019 79.904C98.5779 80.128 97.9299 80.24 97.2579 80.24C96.4259 80.24 95.7139 80.12 95.1219 79.88C94.5299 79.624 94.0659 79.256 93.7299 78.776C93.4099 78.28 93.2499 77.672 93.2499 76.952C93.2499 76.072 93.5219 75.352 94.0659 74.792C94.6259 74.216 95.4499 73.824 96.5379 73.616L101.05 72.68V74.792L98.4339 75.32C97.9379 75.432 97.5539 75.576 97.2819 75.752C97.0259 75.928 96.8979 76.216 96.8979 76.616C96.8979 76.984 97.0339 77.264 97.3059 77.456C97.5939 77.648 97.9299 77.744 98.3139 77.744C98.6179 77.744 98.9139 77.704 99.2019 77.624C99.4899 77.544 99.7379 77.424 99.9459 77.264C100.17 77.088 100.346 76.864 100.474 76.592C100.602 76.304 100.666 75.96 100.666 75.56V72.368ZM108.989 76.112C109.677 76.112 110.221 76.296 110.621 76.664C111.021 77.032 111.221 77.528 111.221 78.152C111.221 78.792 111.021 79.296 110.621 79.664C110.221 80.032 109.677 80.216 108.989 80.216C108.301 80.216 107.749 80.032 107.333 79.664C106.933 79.296 106.733 78.792 106.733 78.152C106.733 77.528 106.933 77.032 107.333 76.664C107.749 76.296 108.301 76.112 108.989 76.112ZM118.385 80.24C117.089 80.24 115.961 79.992 115.001 79.496C114.057 79 113.329 78.288 112.817 77.36C112.305 76.432 112.049 75.312 112.049 74C112.049 72.688 112.305 71.568 112.817 70.64C113.345 69.712 114.073 69 115.001 68.504C115.929 68.008 117.001 67.76 118.217 67.76C119.465 67.76 120.521 68.008 121.385 68.504C122.249 68.984 122.905 69.648 123.353 70.496C123.817 71.344 124.049 72.312 124.049 73.4C124.049 73.704 124.041 74 124.025 74.288C124.009 74.576 123.985 74.824 123.953 75.032H114.401V72.8H122.345L120.569 73.448C120.569 72.472 120.369 71.72 119.969 71.192C119.569 70.664 118.977 70.4 118.193 70.4C117.633 70.4 117.153 70.536 116.753 70.808C116.353 71.064 116.049 71.464 115.841 72.008C115.649 72.536 115.553 73.216 115.553 74.048C115.553 74.88 115.665 75.552 115.889 76.064C116.129 76.576 116.457 76.96 116.873 77.216C117.289 77.456 117.793 77.576 118.385 77.576C119.041 77.576 119.561 77.448 119.945 77.192C120.345 76.936 120.657 76.584 120.881 76.136L123.809 77.168C123.569 77.824 123.177 78.384 122.633 78.848C122.105 79.296 121.473 79.64 120.737 79.88C120.001 80.12 119.217 80.24 118.385 80.24ZM130.1 80.24C129.108 80.24 128.228 79.992 127.46 79.496C126.708 79 126.116 78.288 125.684 77.36C125.268 76.432 125.06 75.32 125.06 74.024C125.06 72.696 125.284 71.568 125.732 70.64C126.18 69.696 126.788 68.984 127.556 68.504C128.34 68.008 129.22 67.76 130.196 67.76C131.284 67.76 132.164 68.08 132.836 68.72C133.508 69.344 133.948 70.152 134.156 71.144L133.796 71.6V62.84H137.468V80H134.18L133.94 76.136L134.372 76.4C134.276 77.184 134.028 77.864 133.628 78.44C133.244 79.016 132.748 79.464 132.14 79.784C131.532 80.088 130.852 80.24 130.1 80.24ZM131.276 77.48C131.804 77.48 132.252 77.344 132.62 77.072C132.988 76.8 133.276 76.4 133.484 75.872C133.692 75.328 133.796 74.672 133.796 73.904C133.796 73.2 133.692 72.592 133.484 72.08C133.292 71.568 133.012 71.184 132.644 70.928C132.276 70.656 131.836 70.52 131.324 70.52C130.524 70.52 129.892 70.808 129.428 71.384C128.98 71.96 128.756 72.832 128.756 74C128.756 75.168 128.98 76.04 129.428 76.616C129.876 77.192 130.492 77.48 131.276 77.48ZM143.827 80.24C143.027 80.24 142.307 80.096 141.667 79.808C141.043 79.52 140.547 79.064 140.179 78.44C139.827 77.816 139.651 77 139.651 75.992V68H143.323V75.104C143.323 75.952 143.491 76.544 143.827 76.88C144.179 77.216 144.675 77.384 145.315 77.384C145.635 77.384 145.931 77.328 146.203 77.216C146.491 77.104 146.747 76.928 146.971 76.688C147.195 76.448 147.363 76.144 147.475 75.776C147.603 75.392 147.667 74.952 147.667 74.456V68H151.363V80H148.075L147.955 77.816C147.571 78.648 147.027 79.264 146.323 79.664C145.635 80.048 144.803 80.24 143.827 80.24Z" fill="var(--color-text-regular)"/>
<defs>
<clipPath id="clip0_2207_125">
<rect width="48" height="48" fill="white" transform="translate(56.5 8)"/>
</clipPath>
</defs>
</svg>
